<?xml version="1.0" standalone="no"?>
<!DOCTYPE svg PUBLIC "-//W3C//DTD SVG 20010904//EN"
 "http://www.w3.org/TR/2001/REC-SVG-20010904/DTD/svg10.dtd">
<svg version="1.0" xmlns="http://www.w3.org/2000/svg"
 width="34102.000000pt" height="9142.000000pt" viewBox="0 0 34102.000000 9142.000000"
 preserveAspectRatio="xMidYMid meet">

<g transform="translate(0.000000,9142.000000) scale(0.100000,-0.100000)"
fill="#000000" stroke="none">
<path d="M112565 55498 c-287 -19 -592 -165 -785 -376 -352 -383 -440 -944
-217 -1387 179 -357 518 -613 901 -680 79 -13 418 -15 3011 -15 1915 0 2959
-4 3026 -10 315 -31 533 -129 752 -339 179 -171 290 -362 354 -609 24 -94 27
-126 27 -262 1 -112 -4 -178 -17 -238 -115 -528 -486 -897 -1003 -998 -84 -17
-500 -18 -7309 -18 -6949 -1 -7223 -2 -7295 -19 -268 -65 -464 -169 -631 -336
-170 -170 -291 -399 -345 -653 -23 -104 -25 -351 -5 -453 48 -243 162 -455
341 -636 188 -189 417 -310 674 -354 79 -13 1024 -15 8675 -15 9342 0 8722 4
8921 -54 314 -91 603 -334 755 -636 146 -291 168 -602 65 -925 -62 -193 -172
-366 -329 -518 -144 -139 -280 -221 -467 -282 -185 -61 -109 -58 -1679 -65
l-1440 -6 -83 -22 c-363 -96 -643 -326 -808 -665 -167 -343 -167 -753 1 -1081
150 -295 423 -528 736 -629 170 -55 -48 -52 3494 -52 l3280 0 96 27 c349 96
611 358 707 707 l27 96 5 1860 c5 1747 6 1862 22 1892 23 41 72 78 126 94 57
17 91 5 238 -80 66 -38 1064 -614 2219 -1281 1155 -666 2147 -1242 2205 -1278
622 -395 1141 -1005 1436 -1692 115 -267 205 -567 254 -840 54 -311 53 -269
57 -1645 4 -1333 3 -1410 -38 -1609 -141 -697 -695 -1250 -1410 -1410 -378
-84 -780 -40 -1137 125 -47 22 -921 522 -1940 1112 -2021 1168 -1929 1111
-1999 1243 -18 33 -43 104 -58 159 -64 246 -203 448 -401 585 -146 101 -292
153 -479 170 -75 8 -2595 10 -7995 8 -7430 -3 -7889 -4 -7955 -21 -266 -66
-454 -166 -621 -332 -402 -401 -489 -1019 -209 -1495 177 -301 444 -497 815
-597 61 -17 361 -18 5505 -23 5047 -5 5446 -7 5521 -23 489 -101 879 -488 978
-972 61 -295 -3 -623 -175 -902 -75 -122 -272 -318 -393 -392 -102 -63 -216
-111 -354 -149 l-97 -27 -1730 -6 c-1174 -4 -1747 -10 -1782 -17 -413 -86
-719 -318 -893 -677 -234 -483 -144 -1031 230 -1406 183 -182 414 -305 660
-350 63 -12 1414 -14 8570 -14 l8495 0 95 26 c113 32 258 98 366 167 44 27
1940 1124 4214 2437 2274 1313 4166 2407 4204 2433 181 120 325 325 388 552
l23 85 0 5045 c0 4753 -1 5049 -17 5112 -64 249 -211 458 -413 591 -68 44
-8407 4861 -8551 4939 -93 50 -196 85 -292 97 -87 12 -20946 21 -21117 9z
m21110 -2183 c33 -9 87 -29 120 -44 33 -16 1406 -805 3050 -1755 2176 -1256
2999 -1736 3022 -1762 58 -66 54 -161 -10 -221 -50 -46 -1245 -731 -1329 -761
-64 -23 -89 -26 -198 -26 -115 -1 -132 2 -210 30 -63 23 -854 475 -3085 1763
-1650 953 -3008 1740 -3019 1749 -31 29 -56 89 -56 137 0 48 25 108 56 137 26
22 1154 674 1229 709 33 16 85 35 115 43 74 20 240 20 315 1z m-4839 -2770
c42 -8 105 -27 138 -43 34 -16 486 -274 1006 -574 520 -300 1870 -1079 3000
-1732 1515 -874 2063 -1195 2084 -1220 51 -62 46 -165 -12 -218 -32 -30 -1190
-699 -1277 -738 -87 -40 -158 -54 -260 -53 -103 0 -192 21 -277 64 -33 16
-580 330 -1216 698 -636 367 -1974 1139 -2972 1716 -998 576 -1826 1057 -1839
1069 -32 28 -61 93 -61 136 0 43 29 108 61 136 35 32 1206 705 1264 727 122
47 233 57 361 32z m11860 -2899 c168 -44 298 -179 333 -344 8 -39 11 -949 11
-3365 0 -3632 4 -3365 -58 -3481 -63 -116 74 -34 -2983 -1797 -1570 -906
-2873 -1656 -2896 -1668 -23 -11 -73 -26 -112 -33 -219 -37 -449 120 -500 343
-7 29 -11 1163 -11 3369 0 2780 2 3333 14 3376 22 82 75 172 130 221 30 26
372 229 827 492 l776 447 6 -1811 c5 -1346 9 -1819 18 -1845 30 -88 111 -161
207 -185 121 -31 54 -64 1347 671 643 367 1202 686 1241 710 84 52 152 122
189 194 57 113 55 20 55 2110 l0 1925 363 209 c860 497 815 474 937 475 30 1
78 -5 106 -13z"/>
<path d="M174405 55388 c-2 -7 -171 -973 -376 -2145 l-373 -2133 -1050 -2
-1050 -3 -307 -1760 c-168 -968 -309 -1777 -313 -1797 l-7 -38 1036 0 1035 0
-5 -22 c-9 -41 -1465 -8319 -1490 -8473 -67 -417 -105 -901 -105 -1330 0
-1649 604 -2765 1830 -3378 582 -292 1260 -461 2110 -527 313 -24 682 -30
2075 -30 l1470 0 324 1822 c179 1002 327 1833 329 1845 l4 23 -1008 0 c-1038
0 -1365 8 -1564 35 -302 42 -514 112 -681 226 -69 47 -183 168 -228 243 -45
76 -99 220 -123 331 -25 116 -36 473 -19 655 7 71 334 1962 751 4343 407 2320
740 4222 740 4228 0 5 740 9 1945 9 1070 0 1945 2 1945 4 0 1 140 806 310
1786 171 981 310 1790 310 1797 0 11 -351 13 -1925 13 l-1925 0 5 23 c6 29
745 4252 745 4261 0 3 -992 6 -2205 6 -1756 0 -2206 -3 -2210 -12z"/>
<path d="M237605 55388 c-2 -7 -171 -973 -376 -2145 l-373 -2133 -1050 -2
-1050 -3 -307 -1760 c-168 -968 -309 -1777 -313 -1797 l-7 -38 1036 0 1035 0
-5 -22 c-9 -41 -1465 -8319 -1490 -8473 -67 -417 -105 -901 -105 -1330 0
-1649 604 -2765 1830 -3378 582 -292 1260 -461 2110 -527 313 -24 682 -30
2075 -30 l1470 0 324 1822 c179 1002 327 1833 329 1845 l4 23 -1008 0 c-1038
0 -1365 8 -1564 35 -302 42 -514 112 -681 226 -69 47 -183 168 -228 243 -45
76 -99 220 -123 331 -25 116 -36 473 -19 655 7 71 334 1962 751 4343 407 2320
740 4222 740 4228 0 5 740 9 1945 9 1070 0 1945 2 1945 4 0 1 140 806 310
1786 171 981 310 1790 310 1797 0 11 -351 13 -1925 13 l-1925 0 5 23 c6 29
745 4252 745 4261 0 3 -992 6 -2205 6 -1756 0 -2206 -3 -2210 -12z"/>
<path d="M200466 55313 c-3 -10 -860 -4851 -1906 -10758 -1045 -5907 -1903
-10755 -1906 -10772 l-6 -33 2056 0 c1298 0 2056 4 2056 10 0 9 399 2268 403
2284 2 4 39 -56 84 -135 201 -354 420 -636 729 -939 210 -206 430 -383 689
-555 242 -160 359 -228 603 -349 458 -225 933 -375 1497 -471 655 -111 1407
-135 2095 -64 1536 157 3037 792 4335 1834 272 219 428 358 699 625 1325 1306
2272 2956 2770 4824 461 1729 536 3361 221 4782 -295 1326 -956 2459 -1890
3239 -325 272 -644 478 -1055 683 -587 293 -1186 477 -1883 577 -1010 144
-2163 73 -3141 -195 -1113 -306 -2240 -925 -3071 -1686 -153 -141 -422 -416
-540 -554 -89 -104 -97 -111 -92 -80 4 19 310 1763 682 3875 371 2112 677
3848 679 3858 4 16 -99 17 -2049 17 -1947 0 -2054 -1 -2059 -17z m7031 -8733
c969 -47 1741 -371 2362 -991 537 -536 829 -1193 938 -2104 25 -215 25 -855 0
-1105 -117 -1157 -487 -2187 -1084 -3017 -684 -953 -1552 -1633 -2561 -2007
-1140 -423 -2408 -368 -3344 144 -149 81 -366 227 -503 336 -141 113 -399 370
-503 501 -467 591 -707 1329 -729 2238 -7 321 9 527 82 1041 145 1013 504
1942 1044 2697 723 1010 1646 1702 2741 2055 368 119 762 192 1126 211 217 11
211 11 431 1z"/>
<path d="M250115 51599 c-515 -32 -1011 -178 -1430 -419 -620 -356 -1014 -814
-1148 -1335 -41 -158 -51 -247 -51 -440 0 -200 18 -314 74 -466 154 -422 579
-782 1114 -943 245 -74 462 -105 787 -113 554 -13 1014 69 1464 262 505 215
969 590 1230 993 298 461 357 1097 141 1525 -69 138 -135 227 -266 357 -153
153 -269 237 -463 335 -398 200 -874 280 -1452 244z"/>
<path d="M196300 51568 c-628 -23 -1192 -202 -1698 -537 -399 -265 -677 -563
-842 -906 -117 -243 -169 -472 -170 -747 0 -200 27 -350 93 -513 185 -452 671
-813 1277 -949 232 -51 338 -61 700 -61 342 0 424 6 660 46 559 97 1079 342
1505 710 474 410 705 879 705 1430 0 286 -63 508 -203 721 -184 280 -503 523
-856 652 -349 127 -690 172 -1171 154z"/>
<path d="M151980 51524 c-611 -53 -1116 -224 -1590 -539 -539 -359 -869 -800
-970 -1294 -104 -509 7 -938 328 -1273 463 -482 1183 -684 2113 -592 729 71
1398 378 1889 864 353 350 534 723 572 1177 36 428 -89 780 -381 1074 -302
304 -678 481 -1186 561 -105 16 -188 21 -430 23 -165 1 -320 1 -345 -1z"/>
<path d="M163010 51383 c-1140 -35 -2174 -226 -3080 -568 -464 -175 -925 -404
-1315 -653 -496 -317 -962 -737 -1319 -1187 -97 -123 -275 -383 -356 -520
-307 -523 -499 -1104 -576 -1745 -22 -182 -30 -738 -15 -953 56 -756 256
-1380 617 -1924 170 -256 350 -470 638 -759 226 -225 363 -345 581 -509 314
-236 582 -398 1000 -604 716 -355 1517 -687 2594 -1076 1035 -373 1812 -710
2309 -1000 491 -286 743 -598 838 -1036 26 -118 27 -435 1 -564 -58 -286 -170
-503 -367 -708 -414 -433 -1184 -713 -2135 -778 -218 -15 -753 -6 -925 16
-756 94 -1295 333 -1705 756 -253 262 -408 536 -494 877 -49 196 -64 330 -64
570 l0 212 -2126 -2 -2126 -3 -7 -65 c-37 -320 -48 -482 -48 -690 0 -650 132
-1237 405 -1798 105 -215 171 -332 288 -506 555 -831 1394 -1506 2457 -1977
1331 -590 2835 -812 4620 -684 1377 100 2632 424 3655 945 1084 553 1910 1342
2373 2266 242 484 378 977 433 1574 19 200 16 668 -5 880 -52 532 -172 963
-380 1375 -191 377 -432 693 -835 1095 -340 340 -679 605 -1076 842 -587 350
-1903 943 -3060 1378 -1241 467 -2176 919 -2590 1253 -181 146 -352 351 -443
532 -172 344 -196 754 -66 1145 131 393 462 733 939 965 467 227 993 326 1660
312 378 -8 621 -37 920 -111 498 -123 866 -328 1180 -658 264 -277 426 -602
498 -1003 18 -102 21 -159 22 -378 l0 -257 2035 2 2035 3 7 55 c15 111 21 681
9 855 -75 1065 -461 1974 -1182 2780 -752 841 -1918 1488 -3236 1795 -780 181
-1669 262 -2583 233z"/>
<path d="M261360 51384 c-898 -36 -1618 -134 -2383 -325 -735 -184 -1384 -425
-2077 -770 -1808 -902 -3257 -2239 -4287 -3954 -914 -1522 -1403 -3155 -1494
-4993 -15 -309 -7 -1073 15 -1322 92 -1059 326 -1921 751 -2770 730 -1460
1887 -2525 3450 -3175 779 -324 1642 -515 2650 -587 234 -16 1076 -16 1330 0
1671 110 3054 487 4434 1207 1517 792 2793 1913 3738 3282 992 1437 1584 3023
1778 4763 78 703 93 1491 40 2095 -86 981 -313 1828 -705 2633 -599 1230
-1502 2192 -2698 2879 -1045 600 -2214 936 -3552 1023 -167 11 -833 20 -990
14z m250 -3778 c873 -110 1548 -424 2129 -991 220 -215 375 -409 517 -647 296
-498 459 -1053 526 -1788 18 -200 15 -800 -6 -1040 -84 -987 -334 -1873 -771
-2734 -320 -630 -686 -1138 -1165 -1616 -459 -459 -939 -808 -1470 -1070 -562
-276 -1139 -432 -1780 -481 -201 -15 -729 -6 -900 15 -742 94 -1343 349 -1850
784 -523 450 -859 1010 -1045 1740 -165 646 -195 1475 -84 2332 153 1186 612
2386 1258 3293 535 751 1230 1362 1975 1737 544 274 1122 428 1811 484 124 10
735 -3 855 -18z"/>
<path d="M295380 51383 c-1140 -35 -2174 -226 -3080 -568 -464 -175 -925 -404
-1315 -653 -496 -317 -962 -737 -1319 -1187 -97 -123 -275 -383 -356 -520
-307 -523 -499 -1104 -576 -1745 -22 -182 -30 -738 -15 -953 56 -756 256
-1380 617 -1924 170 -256 350 -470 638 -759 226 -225 363 -345 581 -509 314
-236 582 -398 1000 -604 716 -355 1517 -687 2594 -1076 1035 -373 1812 -710
2309 -1000 491 -286 743 -598 838 -1036 26 -118 27 -435 1 -564 -58 -286 -170
-503 -367 -708 -414 -433 -1184 -713 -2135 -778 -218 -15 -753 -6 -925 16
-756 94 -1295 333 -1705 756 -253 262 -408 536 -494 877 -49 196 -64 330 -64
570 l0 212 -2126 -2 -2126 -3 -7 -65 c-37 -320 -48 -482 -48 -690 0 -650 132
-1237 405 -1798 105 -215 171 -332 288 -506 555 -831 1394 -1506 2457 -1977
1331 -590 2835 -812 4620 -684 1377 100 2632 424 3655 945 1084 553 1910 1342
2373 2266 242 484 378 977 433 1574 19 200 16 668 -5 880 -52 532 -172 963
-380 1375 -191 377 -432 693 -835 1095 -340 340 -679 605 -1076 842 -587 350
-1903 943 -3060 1378 -1241 467 -2176 919 -2590 1253 -181 146 -352 351 -443
532 -172 344 -196 754 -66 1145 131 393 462 733 939 965 467 227 993 326 1660
312 378 -8 621 -37 920 -111 498 -123 866 -328 1180 -658 264 -277 426 -602
498 -1003 18 -102 21 -159 22 -378 l0 -257 2035 2 2035 3 7 55 c15 111 21 681
9 855 -75 1065 -461 1974 -1182 2780 -752 841 -1918 1488 -3236 1795 -780 181
-1669 262 -2583 233z"/>
<path d="M192500 51353 c-1377 -50 -2606 -498 -3779 -1378 -344 -259 -595
-480 -936 -826 -311 -316 -537 -579 -802 -931 -70 -93 -128 -166 -130 -165 -2
3 506 2948 523 3030 l6 27 -2209 0 -2208 0 -1533 -8668 c-843 -4767 -1533
-8673 -1532 -8679 0 -10 448 -13 2205 -13 1213 0 2205 1 2205 3 0 1 367 2090
815 4642 777 4423 818 4649 870 4831 381 1321 954 2217 1766 2760 529 353
1190 590 1949 698 410 59 768 75 1625 76 l590 0 404 2288 c222 1258 406 2293
409 2300 4 12 -29 13 -238 5z"/>
<path d="M281185 51353 c-1385 -46 -2696 -453 -3925 -1218 -461 -287 -896
-630 -1307 -1029 -68 -65 -123 -112 -123 -104 0 13 351 2012 366 2081 l6 27
-2209 0 -2208 0 -1533 -8668 c-843 -4767 -1533 -8673 -1532 -8679 0 -10 448
-13 2204 -13 l2204 0 6 28 c3 15 393 2232 866 4927 908 5170 894 5095 1020
5510 382 1257 1066 2181 2060 2783 545 331 1146 527 1865 609 228 26 862 26
1080 0 324 -39 616 -104 860 -192 171 -61 443 -195 580 -285 601 -396 971
-969 1136 -1759 104 -504 116 -1106 34 -1756 -18 -140 -1704 -9742 -1729
-9847 -4 -17 105 -18 2172 -18 l2177 0 929 5203 c510 2861 938 5274 951 5362
86 599 116 1409 75 2018 -76 1107 -369 2042 -881 2804 -688 1025 -1795 1742
-3150 2043 -590 130 -1336 195 -1994 173z"/>
<path d="M217395 51088 c-3 -13 -406 -2309 -896 -5103 -490 -2794 -902 -5141
-915 -5215 -125 -696 -161 -1705 -89 -2450 133 -1357 624 -2459 1457 -3265
766 -741 1749 -1214 2943 -1414 441 -74 842 -104 1375 -104 462 0 739 18 1160
79 1160 166 2308 621 3272 1296 361 253 768 606 1038 901 63 69 116 125 117
123 1 -1 -81 -487 -182 -1079 -102 -592 -185 -1083 -185 -1091 0 -14 218 -16
2189 -16 l2188 0 11 58 c6 31 696 3927 1532 8657 836 4730 1523 8610 1525
8623 l5 22 -2192 -2 -2193 -3 -851 -4810 c-468 -2645 -864 -4875 -879 -4955
-73 -384 -208 -850 -347 -1199 -432 -1087 -1184 -1925 -2167 -2416 -459 -229
-936 -368 -1502 -436 -159 -20 -235 -23 -564 -23 -400 -1 -496 5 -772 49 -773
124 -1383 453 -1814 977 -303 370 -503 828 -598 1368 -86 487 -84 1119 4 1725
13 88 404 2310 869 4937 465 2627 846 4779 846 4782 0 4 -985 6 -2190 6
l-2190 0 -5 -22z"/>
<path d="M246833 44732 c-710 -3210 -2411 -10908 -2418 -10939 l-7 -33 2005 0
2005 0 5 28 c3 15 507 2297 1121 5072 1493 6757 1656 7495 1656 7503 0 4 -901
7 -2002 7 l-2003 0 -362 -1638z"/>
<path d="M193300 46334 c0 -3 -175 -798 -390 -1767 -214 -969 -837 -3789
-1385 -6267 -548 -2478 -999 -4520 -1002 -4537 l-6 -33 2004 0 2004 0 1129
5113 c622 2811 1248 5648 1393 6302 144 655 263 1191 263 1193 0 1 -902 2
-2005 2 -1103 0 -2005 -3 -2005 -6z"/>
<path d="M149095 46288 c-2 -7 -177 -798 -389 -1758 -212 -960 -838 -3792
-1391 -6294 -553 -2502 -1003 -4551 -1001 -4554 3 -2 905 -1 2006 3 l2000 8 5
21 c3 11 539 2435 1190 5386 652 2951 1276 5771 1385 6268 110 497 200 910
200 918 0 12 -261 14 -2000 14 -1592 0 -2001 -3 -2005 -12z"/>
</g>
</svg>
