<svg xmlns="http://www.w3.org/2000/svg" xmlns:xlink="http://www.w3.org/1999/xlink" viewBox="0 0 6528.72 1086.76"><defs><style>.cls-1,.cls-2{fill:#ff9305;}.cls-2,.cls-3{font-size:752px;font-family:Poppins-SemiBoldItalic, Poppins;font-weight:600;}.cls-12,.cls-2,.cls-3{font-style:italic;}.cls-2,.cls-5{letter-spacing:-0.07em;}.cls-3{fill:#0066bf;letter-spacing:-0.07em;}.cls-4{font-size:700px;letter-spacing:-0.07em;}.cls-6{letter-spacing:-0.1em;}.cls-7{letter-spacing:-0.13em;}.cls-8{fill:url(#linear-gradient);}.cls-9{fill:url(#linear-gradient-2);}.cls-10{fill:url(#linear-gradient-3);}.cls-11{fill:url(#linear-gradient-4);}.cls-12{font-size:145px;font-family:Poppins-MediumItalic, Poppins;font-weight:500;letter-spacing:0.2em;}</style><linearGradient id="linear-gradient" x1="5136.93" y1="425.24" x2="5329.47" y2="425.24" gradientUnits="userSpaceOnUse"><stop offset="0" stop-color="#045cb8"/><stop offset="1" stop-color="#047adb"/></linearGradient><linearGradient id="linear-gradient-2" x1="1898.04" y1="375.58" x2="2555.99" y2="375.58" xlink:href="#linear-gradient"/><linearGradient id="linear-gradient-3" x1="2782.58" y1="427.01" x2="2975.12" y2="427.01" xlink:href="#linear-gradient"/><linearGradient id="linear-gradient-4" x1="3843.5" y1="426.01" x2="4036.04" y2="426.01" xlink:href="#linear-gradient"/></defs><g id="Layer_2" data-name="Layer 2"><g id="LOGO_NORMAL" data-name="LOGO NORMAL"><path class="cls-1" d="M574.87,121.77l-.77,1.51a397.34,397.34,0,0,0-31.51,85.5l-16.87,58.81a16.52,16.52,0,0,1-1,2.54c-12.8,27.13-32,36.39-59.55,36.39a60.12,60.12,0,0,1-9.9-.81l-25.81-10.43L0,121.77Z"/><path class="cls-1" d="M494.68,349.48,462.2,457.11l-4.4,14.59C446.65,500.27,423,520,395.57,520a56.4,56.4,0,0,1-13.29-1.58L361,508.57,17.22,349.48Z"/><path class="cls-1" d="M279.4,527.15l-22.09,69-5.57,17.38c-8,16.37-22.38,27.3-38.83,27.3a38.94,38.94,0,0,1-24.43-8.9l-.06,0L185.17,629,69.61,527.15Z"/><text class="cls-2" transform="translate(506.35 640.82)">ast</text><text class="cls-3" transform="translate(2976.49 639.57)">str <tspan class="cls-4" x="1002.39" y="0">b</tspan><tspan class="cls-5" x="1429.39" y="0">u</tspan><tspan class="cls-6" x="1875.32" y="0">t</tspan><tspan class="cls-7" x="2091.88" y="0" xml:space="preserve">  </tspan><tspan class="cls-5" x="2302.43" y="0">ons</tspan></text><path class="cls-8" d="M5300.11,336.7,5233.2,639.47h-96.27l66.91-302.77Zm-75.78-46.45q-13.68-10.38-13.66-26.23,0-21.85,20.82-37.44T5280.31,211q21.85,0,35.51,10.38t13.65,26.23q0,21.87-20.48,37.44t-48.48,15.57Q5238,300.63,5224.33,290.25Z"/><path class="cls-1" d="M1941.65,413.57c1.33.19,2.69.19,4,.28h75.65c1.35-.09,2.7-.09,4-.28a29.66,29.66,0,0,0,7.77-2.17,29.64,29.64,0,0,0-3.81-55.72c-1.3-.37-2.64-.55-4-.83l-4-.27h-75.65c-3.57.24-4.52.12-8,1.1a29.75,29.75,0,0,0-7.41,3.21,29.64,29.64,0,0,0,11.37,54.68Z"/><path class="cls-1" d="M1769,176.49c1.33.18,2.69.18,4,.27h75.65c1.35-.09,2.7-.09,4-.27a29.68,29.68,0,0,0,7.77-2.18,29.64,29.64,0,0,0-3.81-55.72c-1.3-.36-2.64-.55-4-.82l-4-.28H1773c-3.57.25-4.52.13-8,1.1a29.42,29.42,0,0,0-7.41,3.22A29.64,29.64,0,0,0,1769,176.49Z"/><path class="cls-1" d="M1835.36,355.68c-1.29-.37-2.64-.55-4-.83l-4-.27h-40.9c-3.57.24-4.52.12-8,1.1a29.75,29.75,0,0,0-7.41,3.21,29.63,29.63,0,0,0,11.36,54.68c1.34.19,2.7.19,4,.28h40.9c1.34-.09,2.7-.09,4-.28a29.44,29.44,0,0,0,7.77-2.17,29.64,29.64,0,0,0-3.81-55.72Z"/><path class="cls-1" d="M1983.27,575.49c-1.29-.37-2.64-.55-4-.83l-4-.27h-40.9c-3.57.24-4.52.12-8,1.1a29.75,29.75,0,0,0-7.41,3.21,29.64,29.64,0,0,0,11.37,54.68c1.33.19,2.69.19,4,.28h40.9c1.34-.09,2.7-.09,4-.28a29.62,29.62,0,0,0,7.78-2.17,29.64,29.64,0,0,0-3.82-55.72Z"/><path class="cls-9" d="M2702.24,257.51c0-.24,0-.48,0-.72a19.79,19.79,0,0,0-.18-2.19,23.28,23.28,0,0,0-5.91-12.28,17.88,17.88,0,0,0-3.91-3.3c-.34-.24-.69-.47-1-.7l-.43-.29L2487.2,120.53c-1-.5-2-1.08-3.11-1.5-2.87-1.13-3.69-1.08-6.72-1.54-1,0-2.07,0-3.11.06l-.79-.06h-498.2c-3.57.25-4.51.13-8,1.1a29.51,29.51,0,0,0-7.4,3.22,29.63,29.63,0,0,0,11.36,54.68c1.34.18,2.69.18,4,.27h137.65l4.94.46c1,.19,2,.37,3,.64a29.64,29.64,0,0,1,3.81,55.72,29.68,29.68,0,0,1-7.77,2.18c-1.34.18-2.7.18-4,.28H1773c-3.57.24-4.52.12-8,1.1a29.39,29.39,0,0,0-7.41,3.21A29.64,29.64,0,0,0,1769,295c1.33.19,2.69.19,4,.28h409.19l4.94.46c1,.19,2,.36,3,.64a29.63,29.63,0,0,1-4,57.89c-1.34.19-2.69.19-4,.28h-60.79c-3.57.24-4.52.12-8,1.1a29.75,29.75,0,0,0-7.41,3.21,29.63,29.63,0,0,0,11.37,54.68c1.33.19,2.69.19,4,.28h150A23.85,23.85,0,0,0,2295.23,390V305.84A4.48,4.48,0,0,1,2302,302l105,60.62a91.15,91.15,0,0,1,45.56,78.93v53c0,33.77-36.55,54.88-65.8,38l-86.2-49.88a11.93,11.93,0,0,1-5.78-7.86,23.79,23.79,0,0,0-23.37-18.94h-375c-3.58.24-4.52.12-8,1.1a29.48,29.48,0,0,0-7.4,3.21,29.63,29.63,0,0,0,11.36,54.68c1.34.19,2.69.19,4,.28h253l4.94.46c1,.19,2,.36,3,.64a29.64,29.64,0,0,1,3.81,55.72,29.66,29.66,0,0,1-7.77,2.17c-1.34.19-2.69.19-4,.28h-74.64c-3.58.24-4.52.12-8,1.1a29.84,29.84,0,0,0-7.4,3.21,29.63,29.63,0,0,0,11.36,54.68c1.34.19,2.69.19,4,.28h399.51l.47,0c.35,0,.71,0,1.06,0,.55,0,1.11,0,1.66-.06s1.22-.12,1.82-.21a23.21,23.21,0,0,0,4.9-1.32c.57-.23,1.12-.5,1.67-.78l.23-.08a28.34,28.34,0,0,0,5-2.83l199.74-115.31c1-.65,2-1.23,2.85-2a23.16,23.16,0,0,0,7.68-11.26c.91-2.95.8-3.76,1-6.81V258C2702.26,257.87,2702.25,257.69,2702.24,257.51Zm-218.73-85.74,143.43,82.81a4,4,0,0,1,0,6.93l-28.14,16.25a15.58,15.58,0,0,1-15.57,0l-142.75-82.42a4.51,4.51,0,0,1,0-7.81l27.3-15.76A15.73,15.73,0,0,1,2483.51,171.77Zm-15.65,172.59L2325.11,262a4.51,4.51,0,0,1,0-7.81l27.3-15.76a15.73,15.73,0,0,1,15.73,0l143.43,82.81a4,4,0,0,1,0,6.93l-28.14,16.24A15.53,15.53,0,0,1,2467.86,344.36Zm188.19,129.2a10.65,10.65,0,0,1-5.32,9.22l-136,78.52a10.64,10.64,0,0,1-16-9.22V395a10.64,10.64,0,0,1,5.32-9.22l36.63-21.15c0,27.24.05,66.05.08,85.49a7,7,0,0,0,10.54,6.1l57.09-32.51a11.29,11.29,0,0,0,5.7-9.82V322.28l26-15a10.64,10.64,0,0,1,16,9.22Z"/><path class="cls-10" d="M2945.76,338.47l-66.91,302.77h-96.27l66.91-302.77ZM2870,292q-13.67-10.38-13.66-26.23,0-21.86,20.82-37.44T2926,212.78q21.86,0,35.51,10.38t13.65,26.23q0,21.87-20.48,37.44t-48.48,15.58Q2883.63,302.41,2870,292Z"/><path class="cls-11" d="M4006.68,337.47l-66.91,302.77H3843.5l66.91-302.77ZM3930.89,291q-13.66-10.38-13.65-26.23,0-21.86,20.82-37.44t48.82-15.57q21.84,0,35.5,10.38T4036,248.39q0,21.87-20.48,37.44t-48.48,15.58Q3944.55,301.41,3930.89,291Z"/><text class="cls-12" transform="translate(832.61 914.95)">Fast Distribution: Where Speed Meets Reliability</text></g></g></svg>